HIERARCHY
ROOT Hips
{
	OFFSET 0.000000 0.000000 0.000000
	CHANNELS 6 Xposition Yposition Zposition Zrotation Yrotation Xrotation 
	JOINT LeftUpLeg_virtual
	{
		OFFSET 0.000000 0.000000 0.000000
		CHANNELS 3 Zrotation Yrotation Xrotation
		JOINT LeftUpLeg
		{
			OFFSET 8.479694 -4.795517 -0.379053
			CHANNELS 3 Zrotation Yrotation Xrotation
			JOINT LeftLeg
			{
				OFFSET 0.485052 -32.551468 0.112863
				CHANNELS 3 Zrotation Yrotation Xrotation
				JOINT LeftFoot
				{
					OFFSET 0.438033 -32.635670 -3.012641
					CHANNELS 3 Zrotation Yrotation Xrotation
					JOINT LeftToeBase
					{
						OFFSET 0.970169 -13.225353 11.864223
						CHANNELS 3 Zrotation Yrotation Xrotation
						End Site
						{
							OFFSET 0.000000 0.000000 0.000000
						}
					}
				}
			}
		}
	}
	JOINT RightUpLeg_virtual
	{
		OFFSET 0.000000 0.000000 0.000000
		CHANNELS 3 Zrotation Yrotation Xrotation
		JOINT RightUpLeg
		{
			OFFSET -8.479694 -4.795517 -0.379053
			CHANNELS 3 Zrotation Yrotation Xrotation
			JOINT RightLeg
			{
				OFFSET -0.484100 -32.551483 0.112903
				CHANNELS 3 Zrotation Yrotation Xrotation
				JOINT RightFoot
				{
					OFFSET -0.438985 -32.635651 -3.012681
					CHANNELS 3 Zrotation Yrotation Xrotation
					JOINT RightToeBase
					{
						OFFSET -0.970169 -13.225354 11.864223
						CHANNELS 3 Zrotation Yrotation Xrotation
						End Site
						{
							OFFSET 0.000000 0.000000 0.000000
						}
					}
				}
			}
		}
	}
	JOINT Spine_virtual
	{
		OFFSET 0.000000 0.000000 0.000000
		CHANNELS 3 Zrotation Yrotation Xrotation
		JOINT Spine
		{
			OFFSET 0.000000 7.722015 1.166203
			CHANNELS 3 Zrotation Yrotation Xrotation
			JOINT Spine1
			{
				OFFSET 0.000000 12.024086 0.248766
				CHANNELS 3 Zrotation Yrotation Xrotation
				JOINT Spine2
				{
					OFFSET -0.000000 11.503036 -0.491240
					CHANNELS 3 Zrotation Yrotation Xrotation
					JOINT Neck_virtual
					{
						OFFSET 0.000000 0.000000 0.000000
						CHANNELS 3 Zrotation Yrotation Xrotation
						JOINT Neck
						{
							OFFSET 0.000000 18.430687 -3.123054
							CHANNELS 3 Zrotation Yrotation Xrotation
							JOINT Head
							{
								OFFSET -0.000000 9.051071 1.034021
								CHANNELS 3 Zrotation Yrotation Xrotation
								End Site
								{
									OFFSET 0.000000 0.000000 0.000000
								}
							}
						}
					}
					JOINT LeftShoulder_virtual
					{
						OFFSET 0.000000 0.000000 0.000000
						CHANNELS 3 Zrotation Yrotation Xrotation
						JOINT LeftShoulder
						{
							OFFSET 6.197824 13.665230 -4.064723
							CHANNELS 3 Zrotation Yrotation Xrotation
							JOINT LeftArm
							{
								OFFSET 7.778132 -0.187073 -1.709282
								CHANNELS 3 Zrotation Yrotation Xrotation
								JOINT LeftForeArm
								{
									OFFSET 21.954697 0.000000 -2.041093
									CHANNELS 3 Zrotation Yrotation Xrotation
									JOINT LeftHand
									{
										OFFSET 22.992908 0.000000 -0.870901
										CHANNELS 3 Zrotation Yrotation Xrotation
										End Site
										{
											OFFSET 0.000000 0.000000 0.000000
										}
									}
								}
							}
						}
					}
					JOINT RightShoulder_virtual
					{
						OFFSET 0.000000 0.000000 0.000000
						CHANNELS 3 Zrotation Yrotation Xrotation
						JOINT RightShoulder
						{
							OFFSET -6.197824 13.665230 -4.064723
							CHANNELS 3 Zrotation Yrotation Xrotation
							JOINT RightArm
							{
								OFFSET -7.778132 -0.187073 -1.709282
								CHANNELS 3 Zrotation Yrotation Xrotation
								JOINT RightForeArm
								{
									OFFSET -21.954697 0.000000 -2.041093
									CHANNELS 3 Zrotation Yrotation Xrotation
									JOINT RightHand
									{
										OFFSET -22.992908 0.000000 -0.870901
										CHANNELS 3 Zrotation Yrotation Xrotation
										End Site
										{
											OFFSET 0.000000 0.000000 0.000000
										}
									}
								}
							}
						}
					}
				}
			}
		}
	}
}
MOTION
Frames: 8
Frame Time: 0.033333
4.542416 80.819649 19.879465 179.857637 2.816805 179.989090 -4.200494 0.459056 11.498215 -2.589909 0.680396 -25.562575 11.594637 7.362805 32.041254 5.166557 -5.111536 -19.095073 0.000000 0.000000 0.000000 -1.571088 -3.202185 10.660716 0.314242 -2.389815 -21.780497 -0.838242 1.820043 31.424300 7.350475 2.427343 -14.291326 0.000000 0.000000 0.000000 1.596611 1.533730 0.334835 -4.582365 1.473630 -1.522627 0.350564 -2.243126 4.797068 0.049785 -0.101613 -0.055516 0.367402 -1.218614 5.541982 2.844627 1.625326 -0.172125 0.000000 0.000000 0.000000 1.576587 -0.605026 2.493446 -1.625252 3.674116 -8.247945 -11.429630 -7.317994 -47.406554 2.549801 -36.685547 -1.805831 0.000000 0.000000 0.000000 -2.099670 0.552182 1.822741 19.947619 -9.558619 -8.675522 -1.845645 3.997892 -64.042927 2.366082 25.898013 3.252306 0.000000 0.000000 0.000000 
4.527519 80.837227 20.035301 179.765893 2.581907 179.851134 -4.036438 0.790760 11.359201 -2.546067 1.227398 -25.633922 11.838286 7.625798 31.692009 5.368898 -4.878358 -19.175240 0.000000 0.000000 0.000000 -1.613759 -4.035692 10.414703 0.661996 -3.352437 -22.045332 -0.831872 0.958572 32.476685 6.832367 1.766535 -14.289574 0.000000 0.000000 0.000000 1.500892 1.428470 0.385994 -4.626889 1.408401 -1.397294 0.284714 -2.190360 4.847537 0.019680 -0.042759 -0.085396 0.462717 -1.092215 5.437918 2.895647 1.542081 -0.300777 0.000000 0.000000 0.000000 1.625493 -0.593021 2.447150 -1.548431 3.367479 -8.183803 -11.561649 -7.690607 -47.338002 2.709292 -36.912087 -1.901694 0.000000 0.000000 0.000000 -2.041145 0.576318 1.577601 20.096906 -9.534264 -8.565263 -1.607960 4.073169 -63.567266 2.515185 25.792159 3.356984 0.000000 0.000000 0.000000 
4.521093 80.858788 20.212099 179.748777 2.587182 179.856161 -4.021034 0.786012 11.297283 -2.578773 1.258271 -25.559514 11.767226 7.649000 31.405920 5.368331 -4.883496 -19.072774 0.000000 0.000000 0.000000 -1.531685 -4.004303 10.341040 0.581751 -3.442713 -22.065273 -0.863144 0.921312 32.355699 6.931214 1.820753 -14.184537 0.000000 0.000000 0.000000 1.472133 1.293581 0.438630 -4.641461 1.470240 -1.427470 0.269938 -2.198472 4.839525 0.017627 -0.051633 -0.072475 0.339482 -1.094012 5.366694 2.571979 1.658470 -0.427393 0.000000 0.000000 0.000000 1.609631 -0.508463 2.401546 -1.600128 3.151151 -7.965098 -11.857792 -8.307300 -46.291225 2.894692 -37.650970 -2.000019 0.000000 0.000000 0.000000 -2.051061 0.642665 1.653468 20.254673 -9.280202 -8.318888 -1.252938 4.756664 -63.170009 2.413988 25.571161 3.102636 0.000000 0.000000 0.000000 
4.526696 80.880280 20.388126 179.759214 2.424365 179.831996 -3.957446 0.701961 11.250522 -2.612232 1.324625 -25.437013 11.660707 7.690039 31.076466 5.334674 -4.902825 -18.948441 0.000000 0.000000 0.000000 -1.444556 -4.183170 10.295637 0.509641 -3.536710 -22.171428 -0.857479 0.896238 32.364510 7.005470 1.812373 -14.089641 0.000000 0.000000 0.000000 1.479718 1.170447 0.604316 -4.674952 1.560093 -1.472357 0.211637 -2.234347 4.835614 0.023592 -0.086833 -0.060654 0.335007 -1.062390 5.406570 2.389686 1.655800 -0.431900 0.000000 0.000000 0.000000 1.578215 -0.482006 2.404375 -1.538213 2.770662 -7.644975 -12.154545 -9.061043 -45.252288 3.119220 -38.710060 -1.992505 0.000000 0.000000 0.000000 -2.079103 0.685496 1.657108 20.179411 -8.975016 -7.830360 -0.356769 5.692235 -62.564396 2.320230 25.552410 2.776017 0.000000 0.000000 0.000000 
4.539887 80.903717 20.547834 179.749979 2.197674 179.842542 -3.889034 0.648163 11.235151 -2.638541 1.283919 -25.366313 11.523912 7.686709 30.744420 5.311117 -4.892253 -18.824833 0.000000 0.000000 0.000000 -1.316505 -4.260752 10.298694 0.428612 -3.750309 -22.216790 -0.872841 0.804958 32.212094 7.134064 1.826830 -13.993971 0.000000 0.000000 0.000000 1.473044 1.042915 0.671988 -4.665523 1.662232 -1.498425 0.210572 -2.243897 4.910521 0.060552 -0.081874 -0.076476 0.273432 -1.050043 5.352377 2.066188 1.729424 -0.696372 0.000000 0.000000 0.000000 1.550861 -0.591843 2.347062 -1.440876 2.391363 -7.397917 -12.667899 -10.054624 -43.570333 3.057874 -40.058018 -1.929416 0.000000 0.000000 0.000000 -2.128968 0.670076 1.657557 20.107351 -8.556999 -7.212166 0.477475 6.890892 -61.720786 2.133530 25.799745 2.367782 0.000000 0.000000 0.000000 
4.560252 80.921425 20.701990 179.742821 2.100872 179.826737 -3.816589 0.660215 11.217048 -2.657670 1.314592 -25.303834 11.348133 7.681448 30.457876 5.308616 -4.856278 -18.747221 0.000000 0.000000 0.000000 -1.203505 -4.378412 10.269253 0.359218 -3.898914 -22.377175 -0.894141 0.804660 32.298196 7.280894 1.818931 -13.918075 0.000000 0.000000 0.000000 1.440061 1.063843 0.808206 -4.620661 1.855509 -1.549130 0.202953 -2.179488 4.959041 0.056399 -0.175368 -0.088478 0.220196 -1.048538 5.417288 1.708381 1.838158 -0.821029 0.000000 0.000000 0.000000 1.532247 -0.544516 2.451252 -1.256778 1.688877 -7.100535 -13.183202 -11.302357 -41.811833 3.195162 -41.477802 -1.921212 0.000000 0.000000 0.000000 -2.110269 0.613503 1.724602 19.996803 -7.964941 -6.560734 1.396453 8.216176 -60.602431 1.978919 26.397547 1.977456 0.000000 0.000000 0.000000 
4.572891 80.937607 20.857634 179.758968 1.928533 179.871980 -3.764441 0.691038 11.134125 -2.619729 1.252976 -25.308612 11.143352 7.638725 30.218628 5.332996 -4.818254 -18.725513 0.000000 0.000000 0.000000 -1.108586 -4.471403 10.220457 0.328769 -4.077676 -22.541038 -0.890044 0.816557 32.353448 7.377917 1.748716 -13.847194 0.000000 0.000000 0.000000 1.349381 0.993177 0.810551 -4.525464 1.896327 -1.571844 0.171271 -2.238351 5.053917 0.019301 -0.034339 -0.099860 0.220002 -1.091111 5.448380 1.417137 1.929725 -1.053355 0.000000 0.000000 0.000000 1.547412 -0.512473 2.511265 -1.019164 1.106603 -6.746808 -13.873638 -12.822884 -39.918624 3.266327 -43.041649 -1.833305 0.000000 0.000000 0.000000 -2.095495 0.645642 1.844977 19.855295 -7.115214 -5.606863 2.541316 9.592355 -58.481575 1.850773 27.419072 1.782801 0.000000 0.000000 0.000000 
4.553711 80.953438 21.029427 179.761003 1.507436 179.788925 -3.756157 0.665053 11.062656 -2.535984 1.079768 -25.246348 10.928289 7.562495 30.076004 5.400068 -4.777193 -18.767111 0.000000 0.000000 0.000000 -1.045036 -4.577147 10.201022 0.316714 -4.361632 -22.504196 -0.875170 0.780631 32.302393 7.465246 1.634191 -13.765590 0.000000 0.000000 0.000000 1.233920 0.922794 0.835673 -4.361063 1.899211 -1.577716 0.180146 -2.312904 5.193696 0.018905 -0.063761 -0.070896 0.253680 -1.057292 5.463488 1.153928 2.035471 -1.109774 0.000000 0.000000 0.000000 1.555188 -0.563630 2.510871 -0.843841 0.462931 -6.363897 -14.902665 -14.390015 -37.584093 3.384152 -44.699241 -1.744895 0.000000 0.000000 0.000000 -2.050142 0.640199 1.853085 19.755793 -6.084272 -4.682590 4.032767 10.836542 -55.886766 1.707003 28.978785 1.345715 0.000000 0.000000 0.000000 
